<mxfile host="app.diagrams.net" modified="2024-05-05T11:47:26.564Z" agent="Mozilla/5.0 (Windows NT 10.0; Win64; x64; rv:125.0) Gecko/20100101 Firefox/125.0" etag="KK724musgZryy9y6S8bb" version="24.3.1" type="device">
  <diagram name="Page-1" id="5f0bae14-7c28-e335-631c-24af17079c00">
    <mxGraphModel dx="1434" dy="754" grid="1" gridSize="10" guides="1" tooltips="1" connect="1" arrows="1" fold="1" page="1" pageScale="1" pageWidth="1100" pageHeight="850" background="none" math="0" shadow="0">
      <root>
        <mxCell id="0" />
        <mxCell id="1" parent="0" />
        <mxCell id="nIUKmWfN1bceQp8VnUci-86" style="edgeStyle=orthogonalEdgeStyle;rounded=0;orthogonalLoop=1;jettySize=auto;html=1;entryX=0;entryY=0.5;entryDx=0;entryDy=0;" edge="1" parent="1" source="nIUKmWfN1bceQp8VnUci-20" target="nIUKmWfN1bceQp8VnUci-23">
          <mxGeometry relative="1" as="geometry" />
        </mxCell>
        <mxCell id="nIUKmWfN1bceQp8VnUci-20" value="GUI (Frontend)" style="whiteSpace=wrap;html=1;shadow=1;align=center;verticalAlign=top;fontStyle=1;fontSize=14;" vertex="1" parent="1">
          <mxGeometry x="40" y="40" width="390" height="210" as="geometry" />
        </mxCell>
        <mxCell id="nIUKmWfN1bceQp8VnUci-84" style="edgeStyle=orthogonalEdgeStyle;rounded=0;orthogonalLoop=1;jettySize=auto;html=1;entryX=1;entryY=0.5;entryDx=0;entryDy=0;" edge="1" parent="1" source="nIUKmWfN1bceQp8VnUci-21" target="nIUKmWfN1bceQp8VnUci-22">
          <mxGeometry relative="1" as="geometry" />
        </mxCell>
        <mxCell id="nIUKmWfN1bceQp8VnUci-21" value="Metafunktionen" style="whiteSpace=wrap;html=1;shadow=1;align=center;verticalAlign=top;fontStyle=1;fontSize=14;" vertex="1" parent="1">
          <mxGeometry x="620" y="390" width="390" height="200" as="geometry" />
        </mxCell>
        <mxCell id="nIUKmWfN1bceQp8VnUci-81" style="edgeStyle=orthogonalEdgeStyle;rounded=0;orthogonalLoop=1;jettySize=auto;html=1;entryX=0.5;entryY=1;entryDx=0;entryDy=0;" edge="1" parent="1" source="nIUKmWfN1bceQp8VnUci-22" target="nIUKmWfN1bceQp8VnUci-20">
          <mxGeometry relative="1" as="geometry" />
        </mxCell>
        <mxCell id="nIUKmWfN1bceQp8VnUci-22" value="Spielwelt" style="whiteSpace=wrap;html=1;shadow=1;align=center;verticalAlign=top;fontStyle=1;fontSize=14;" vertex="1" parent="1">
          <mxGeometry x="40" y="390" width="390" height="200" as="geometry" />
        </mxCell>
        <mxCell id="nIUKmWfN1bceQp8VnUci-85" style="edgeStyle=orthogonalEdgeStyle;rounded=0;orthogonalLoop=1;jettySize=auto;html=1;" edge="1" parent="1" source="nIUKmWfN1bceQp8VnUci-23" target="nIUKmWfN1bceQp8VnUci-20">
          <mxGeometry relative="1" as="geometry" />
        </mxCell>
        <mxCell id="nIUKmWfN1bceQp8VnUci-23" value="Backend (Unity)" style="whiteSpace=wrap;html=1;shadow=1;align=center;verticalAlign=top;fontStyle=1;fontSize=14;" vertex="1" parent="1">
          <mxGeometry x="620" y="45" width="390" height="200" as="geometry" />
        </mxCell>
        <mxCell id="nIUKmWfN1bceQp8VnUci-38" style="edgeStyle=orthogonalEdgeStyle;rounded=0;orthogonalLoop=1;jettySize=auto;html=1;exitX=0;exitY=0.3333333333333333;exitDx=0;exitDy=0;exitPerimeter=0;entryX=0.5;entryY=1;entryDx=0;entryDy=0;dashed=1;" edge="1" parent="1" source="nIUKmWfN1bceQp8VnUci-24" target="nIUKmWfN1bceQp8VnUci-37">
          <mxGeometry relative="1" as="geometry" />
        </mxCell>
        <mxCell id="nIUKmWfN1bceQp8VnUci-39" value="interagiert" style="edgeLabel;html=1;align=center;verticalAlign=middle;resizable=0;points=[];" vertex="1" connectable="0" parent="nIUKmWfN1bceQp8VnUci-38">
          <mxGeometry x="0.12" relative="1" as="geometry">
            <mxPoint as="offset" />
          </mxGeometry>
        </mxCell>
        <mxCell id="nIUKmWfN1bceQp8VnUci-24" value="Benutzer / Spieler" style="shape=umlActor;verticalLabelPosition=bottom;verticalAlign=top;html=1;outlineConnect=0;" vertex="1" parent="1">
          <mxGeometry x="500" y="280" width="30" height="60" as="geometry" />
        </mxCell>
        <mxCell id="nIUKmWfN1bceQp8VnUci-25" value="&lt;strong style=&quot;font-size: 12px;&quot;&gt;Benutzeroberfl채che&lt;/strong&gt;" style="rounded=0;whiteSpace=wrap;html=1;fontStyle=0;fontSize=12;" vertex="1" parent="1">
          <mxGeometry x="60" y="80" width="120" height="60" as="geometry" />
        </mxCell>
        <mxCell id="nIUKmWfN1bceQp8VnUci-26" value="&lt;strong&gt;Interaktive Symbole (Icons)&lt;br&gt;&lt;/strong&gt;" style="rounded=0;whiteSpace=wrap;html=1;fontStyle=0;fontSize=12;" vertex="1" parent="1">
          <mxGeometry x="270" y="80" width="120" height="60" as="geometry" />
        </mxCell>
        <mxCell id="nIUKmWfN1bceQp8VnUci-27" value="&lt;strong&gt;Spielszenen-Ansichten&lt;/strong&gt;" style="rounded=0;whiteSpace=wrap;html=1;fontStyle=0;fontSize=12;" vertex="1" parent="1">
          <mxGeometry x="160" y="160" width="120" height="60" as="geometry" />
        </mxCell>
        <mxCell id="nIUKmWfN1bceQp8VnUci-28" value="&lt;strong&gt;Charaktere&lt;/strong&gt;" style="rounded=0;whiteSpace=wrap;html=1;fontStyle=0;fontSize=12;" vertex="1" parent="1">
          <mxGeometry x="80" y="425" width="120" height="60" as="geometry" />
        </mxCell>
        <mxCell id="nIUKmWfN1bceQp8VnUci-29" value="&lt;strong&gt;Umgebungen&lt;/strong&gt;" style="rounded=0;whiteSpace=wrap;html=1;fontStyle=0;fontSize=12;" vertex="1" parent="1">
          <mxGeometry x="280" y="425" width="120" height="60" as="geometry" />
        </mxCell>
        <mxCell id="nIUKmWfN1bceQp8VnUci-30" value="&lt;strong&gt;Interaktive Objekte&lt;/strong&gt;" style="rounded=0;whiteSpace=wrap;html=1;fontStyle=0;fontSize=12;" vertex="1" parent="1">
          <mxGeometry x="175" y="512" width="120" height="60" as="geometry" />
        </mxCell>
        <mxCell id="nIUKmWfN1bceQp8VnUci-31" value="&lt;strong&gt;Benutzerdaten-verwaltung&lt;/strong&gt;" style="rounded=0;whiteSpace=wrap;html=1;fontStyle=0;fontSize=12;" vertex="1" parent="1">
          <mxGeometry x="650" y="430" width="120" height="60" as="geometry" />
        </mxCell>
        <mxCell id="nIUKmWfN1bceQp8VnUci-32" value="&lt;strong&gt;Analysewerkzeuge&lt;/strong&gt;" style="rounded=0;whiteSpace=wrap;html=1;fontStyle=0;fontSize=12;" vertex="1" parent="1">
          <mxGeometry x="850" y="430" width="120" height="60" as="geometry" />
        </mxCell>
        <mxCell id="nIUKmWfN1bceQp8VnUci-33" value="&lt;strong&gt;Tutorial&lt;/strong&gt;" style="rounded=0;whiteSpace=wrap;html=1;fontStyle=0;fontSize=12;" vertex="1" parent="1">
          <mxGeometry x="750" y="500" width="120" height="60" as="geometry" />
        </mxCell>
        <mxCell id="nIUKmWfN1bceQp8VnUci-34" value="&lt;strong&gt;Spiellogik&lt;/strong&gt;" style="rounded=0;whiteSpace=wrap;html=1;fontStyle=0;fontSize=12;" vertex="1" parent="1">
          <mxGeometry x="640" y="85" width="120" height="60" as="geometry" />
        </mxCell>
        <mxCell id="nIUKmWfN1bceQp8VnUci-35" value="&lt;strong&gt;Asset-Verwaltung&lt;/strong&gt;" style="rounded=0;whiteSpace=wrap;html=1;fontStyle=0;fontSize=12;" vertex="1" parent="1">
          <mxGeometry x="860" y="85" width="120" height="60" as="geometry" />
        </mxCell>
        <mxCell id="nIUKmWfN1bceQp8VnUci-36" value="Error-Handling" style="rounded=0;whiteSpace=wrap;html=1;fontStyle=1;fontSize=12;" vertex="1" parent="1">
          <mxGeometry x="750" y="175" width="120" height="60" as="geometry" />
        </mxCell>
        <mxCell id="nIUKmWfN1bceQp8VnUci-88" style="edgeStyle=orthogonalEdgeStyle;rounded=0;orthogonalLoop=1;jettySize=auto;html=1;dashed=1;" edge="1" parent="1" source="nIUKmWfN1bceQp8VnUci-37" target="nIUKmWfN1bceQp8VnUci-24">
          <mxGeometry relative="1" as="geometry" />
        </mxCell>
        <mxCell id="nIUKmWfN1bceQp8VnUci-89" value="reagiert auf" style="edgeLabel;html=1;align=center;verticalAlign=middle;resizable=0;points=[];" vertex="1" connectable="0" parent="nIUKmWfN1bceQp8VnUci-88">
          <mxGeometry x="0.1953" y="-2" relative="1" as="geometry">
            <mxPoint as="offset" />
          </mxGeometry>
        </mxCell>
        <mxCell id="nIUKmWfN1bceQp8VnUci-37" value="" style="rounded=0;whiteSpace=wrap;html=1;" vertex="1" parent="1">
          <mxGeometry x="340" y="236" width="35" height="30" as="geometry" />
        </mxCell>
        <mxCell id="nIUKmWfN1bceQp8VnUci-41" value="Men체s" style="rounded=0;whiteSpace=wrap;html=1;fontSize=10;" vertex="1" parent="1">
          <mxGeometry x="50" y="120" width="60" height="30" as="geometry" />
        </mxCell>
        <mxCell id="nIUKmWfN1bceQp8VnUci-42" value="F체ttern" style="rounded=0;whiteSpace=wrap;html=1;fontSize=10;" vertex="1" parent="1">
          <mxGeometry x="360" y="125" width="60" height="30" as="geometry" />
        </mxCell>
        <mxCell id="nIUKmWfN1bceQp8VnUci-43" value="Schaltfl채chen" style="rounded=0;whiteSpace=wrap;html=1;fontSize=10;" vertex="1" parent="1">
          <mxGeometry x="90" y="60" width="80" height="30" as="geometry" />
        </mxCell>
        <mxCell id="nIUKmWfN1bceQp8VnUci-46" value="Pop-ups" style="rounded=0;whiteSpace=wrap;html=1;fontSize=10;" vertex="1" parent="1">
          <mxGeometry x="140" y="120" width="60" height="30" as="geometry" />
        </mxCell>
        <mxCell id="nIUKmWfN1bceQp8VnUci-48" value="Streicheln" style="rounded=0;whiteSpace=wrap;html=1;fontSize=10;" vertex="1" parent="1">
          <mxGeometry x="235" y="120" width="60" height="30" as="geometry" />
        </mxCell>
        <mxCell id="nIUKmWfN1bceQp8VnUci-49" value="Putzen" style="rounded=0;whiteSpace=wrap;html=1;fontSize=10;" vertex="1" parent="1">
          <mxGeometry x="300" y="60" width="60" height="30" as="geometry" />
        </mxCell>
        <mxCell id="nIUKmWfN1bceQp8VnUci-51" value="Hauptansicht" style="rounded=0;whiteSpace=wrap;html=1;fontSize=10;" vertex="1" parent="1">
          <mxGeometry x="110" y="170" width="70" height="30" as="geometry" />
        </mxCell>
        <mxCell id="nIUKmWfN1bceQp8VnUci-53" value="Tierheim" style="rounded=0;whiteSpace=wrap;html=1;fontSize=10;" vertex="1" parent="1">
          <mxGeometry x="270" y="155" width="60" height="30" as="geometry" />
        </mxCell>
        <mxCell id="nIUKmWfN1bceQp8VnUci-54" value="Tierarztpraxis" style="rounded=0;whiteSpace=wrap;html=1;fontSize=10;" vertex="1" parent="1">
          <mxGeometry x="240" y="210" width="60" height="30" as="geometry" />
        </mxCell>
        <mxCell id="nIUKmWfN1bceQp8VnUci-55" value="Spielstand" style="rounded=0;whiteSpace=wrap;html=1;fontSize=10;" vertex="1" parent="1">
          <mxGeometry x="630" y="475" width="60" height="30" as="geometry" />
        </mxCell>
        <mxCell id="nIUKmWfN1bceQp8VnUci-56" value="Profil" style="rounded=0;whiteSpace=wrap;html=1;fontSize=10;" vertex="1" parent="1">
          <mxGeometry x="680" y="410" width="60" height="30" as="geometry" />
        </mxCell>
        <mxCell id="nIUKmWfN1bceQp8VnUci-58" value="Nutzungsverhalten" style="rounded=0;whiteSpace=wrap;html=1;fontSize=10;" vertex="1" parent="1">
          <mxGeometry x="820" y="420" width="100" height="30" as="geometry" />
        </mxCell>
        <mxCell id="nIUKmWfN1bceQp8VnUci-59" value="Statistiken" style="rounded=0;whiteSpace=wrap;html=1;fontSize=10;" vertex="1" parent="1">
          <mxGeometry x="930" y="485" width="60" height="30" as="geometry" />
        </mxCell>
        <mxCell id="nIUKmWfN1bceQp8VnUci-60" value="Hilfstellungen" style="rounded=0;whiteSpace=wrap;html=1;fontSize=10;" vertex="1" parent="1">
          <mxGeometry x="720" y="540" width="70" height="30" as="geometry" />
        </mxCell>
        <mxCell id="nIUKmWfN1bceQp8VnUci-61" value="Intro" style="rounded=0;whiteSpace=wrap;html=1;fontSize=10;" vertex="1" parent="1">
          <mxGeometry x="835" y="540" width="70" height="30" as="geometry" />
        </mxCell>
        <mxCell id="nIUKmWfN1bceQp8VnUci-62" value="NPCs" style="rounded=0;whiteSpace=wrap;html=1;fontSize=10;" vertex="1" parent="1">
          <mxGeometry x="60" y="410" width="60" height="30" as="geometry" />
        </mxCell>
        <mxCell id="nIUKmWfN1bceQp8VnUci-63" value="Hund" style="rounded=0;whiteSpace=wrap;html=1;fontSize=10;" vertex="1" parent="1">
          <mxGeometry x="50" y="475" width="60" height="30" as="geometry" />
        </mxCell>
        <mxCell id="nIUKmWfN1bceQp8VnUci-64" value="PC" style="rounded=0;whiteSpace=wrap;html=1;fontSize=10;" vertex="1" parent="1">
          <mxGeometry x="170" y="470" width="60" height="30" as="geometry" />
        </mxCell>
        <mxCell id="nIUKmWfN1bceQp8VnUci-65" value="Wohnzimmer" style="rounded=0;whiteSpace=wrap;html=1;fontSize=10;" vertex="1" parent="1">
          <mxGeometry x="350" y="410" width="70" height="30" as="geometry" />
        </mxCell>
        <mxCell id="nIUKmWfN1bceQp8VnUci-66" value="Tierheim" style="rounded=0;whiteSpace=wrap;html=1;fontSize=10;" vertex="1" parent="1">
          <mxGeometry x="320" y="470" width="60" height="30" as="geometry" />
        </mxCell>
        <mxCell id="nIUKmWfN1bceQp8VnUci-67" value="Garten" style="rounded=0;whiteSpace=wrap;html=1;fontSize=10;" vertex="1" parent="1">
          <mxGeometry x="240" y="430" width="60" height="30" as="geometry" />
        </mxCell>
        <mxCell id="nIUKmWfN1bceQp8VnUci-68" value="Spielzeug" style="rounded=0;whiteSpace=wrap;html=1;fontSize=10;" vertex="1" parent="1">
          <mxGeometry x="250" y="500" width="60" height="30" as="geometry" />
        </mxCell>
        <mxCell id="nIUKmWfN1bceQp8VnUci-69" value="B체rsten" style="rounded=0;whiteSpace=wrap;html=1;fontSize=10;" vertex="1" parent="1">
          <mxGeometry x="220" y="556" width="60" height="30" as="geometry" />
        </mxCell>
        <mxCell id="nIUKmWfN1bceQp8VnUci-70" value="Futtern채pfe" style="rounded=0;whiteSpace=wrap;html=1;fontSize=10;" vertex="1" parent="1">
          <mxGeometry x="140" y="505" width="60" height="30" as="geometry" />
        </mxCell>
        <mxCell id="nIUKmWfN1bceQp8VnUci-71" value="Scripte " style="rounded=0;whiteSpace=wrap;html=1;fontSize=10;" vertex="1" parent="1">
          <mxGeometry x="630" y="75" width="60" height="30" as="geometry" />
        </mxCell>
        <mxCell id="nIUKmWfN1bceQp8VnUci-72" value="Ereignisse" style="rounded=0;whiteSpace=wrap;html=1;fontSize=10;" vertex="1" parent="1">
          <mxGeometry x="630" y="130" width="60" height="30" as="geometry" />
        </mxCell>
        <mxCell id="nIUKmWfN1bceQp8VnUci-73" value="Audio" style="rounded=0;whiteSpace=wrap;html=1;fontSize=10;" vertex="1" parent="1">
          <mxGeometry x="830" y="75" width="60" height="30" as="geometry" />
        </mxCell>
        <mxCell id="nIUKmWfN1bceQp8VnUci-74" value="Texte" style="rounded=0;whiteSpace=wrap;html=1;fontSize=10;" vertex="1" parent="1">
          <mxGeometry x="890" y="125" width="60" height="30" as="geometry" />
        </mxCell>
        <mxCell id="nIUKmWfN1bceQp8VnUci-75" value="Grafiken" style="rounded=0;whiteSpace=wrap;html=1;fontSize=10;" vertex="1" parent="1">
          <mxGeometry x="940" y="70" width="60" height="30" as="geometry" />
        </mxCell>
        <mxCell id="nIUKmWfN1bceQp8VnUci-76" value="Statusbalken" style="rounded=0;whiteSpace=wrap;html=1;fontSize=10;" vertex="1" parent="1">
          <mxGeometry x="715" y="130" width="70" height="30" as="geometry" />
        </mxCell>
        <mxCell id="nIUKmWfN1bceQp8VnUci-80" value="Error-Handling" style="rounded=0;whiteSpace=wrap;html=1;fontSize=10;" vertex="1" parent="1">
          <mxGeometry x="725" y="75" width="60" height="30" as="geometry" />
        </mxCell>
        <mxCell id="nIUKmWfN1bceQp8VnUci-87" style="edgeStyle=orthogonalEdgeStyle;rounded=0;orthogonalLoop=1;jettySize=auto;html=1;entryX=1.003;entryY=0.79;entryDx=0;entryDy=0;entryPerimeter=0;" edge="1" parent="1" source="nIUKmWfN1bceQp8VnUci-36" target="nIUKmWfN1bceQp8VnUci-20">
          <mxGeometry relative="1" as="geometry" />
        </mxCell>
        <mxCell id="nIUKmWfN1bceQp8VnUci-90" style="edgeStyle=orthogonalEdgeStyle;rounded=0;orthogonalLoop=1;jettySize=auto;html=1;entryX=-0.003;entryY=0.33;entryDx=0;entryDy=0;entryPerimeter=0;" edge="1" parent="1" source="nIUKmWfN1bceQp8VnUci-41" target="nIUKmWfN1bceQp8VnUci-21">
          <mxGeometry relative="1" as="geometry">
            <Array as="points">
              <mxPoint x="80" y="370" />
              <mxPoint x="540" y="370" />
              <mxPoint x="540" y="456" />
            </Array>
          </mxGeometry>
        </mxCell>
      </root>
    </mxGraphModel>
  </diagram>
</mxfile>
